<svg xmlns="http://www.w3.org/2000/svg" width="89.5" height="89.5" viewBox="0 0 89.5 89.5"><defs><style>.a,.b{fill:none;stroke-linecap:round;stroke-linejoin:round;stroke-width:3px;}.a{stroke:#28263e;}.b{stroke:#e20334;}</style></defs><g transform="translate(-248.727 -269.505)"><path class="a" d="M250.227,282.288v-7.522a3.761,3.761,0,0,1,3.761-3.761h7.522"/><path class="a" d="M336.727,282.288v-7.522a3.761,3.761,0,0,0-3.761-3.761h-7.521"/><path class="a" d="M250.227,346.222v7.522a3.761,3.761,0,0,0,3.761,3.761h7.522"/><path class="a" d="M336.727,346.222v7.522a3.761,3.761,0,0,1-3.761,3.761h-7.521"/><circle class="b" cx="13.163" cy="13.163" r="13.163" transform="translate(280.314 301.092)"/><path class="a" d="M293.477,313.315a.94.94,0,1,1-.94.94.939.939,0,0,1,.94-.94h0"/><path class="a" d="M330.548,314.255s-16.121,22.565-37.071,22.565-37.071-22.565-37.071-22.565,16.12-22.565,37.071-22.565S330.548,314.255,330.548,314.255Z"/></g></svg>