<svg xmlns="http://www.w3.org/2000/svg" xmlns:xlink="http://www.w3.org/1999/xlink" width="960" height="1068" viewBox="0 0 960 1068"><defs><style>.a{fill:none;}.b{clip-path:url(#a);}.c{clip-path:url(#b);}.d{fill:#272a41;opacity:0.03;}</style><clipPath id="a"><rect class="a" width="960" height="1068"/></clipPath><clipPath id="b"><rect class="a" width="1365.697" height="1607" transform="translate(-238.28 -473.972)"/></clipPath></defs><g class="b"><g class="c"><path class="d" d="M1384.987-250.531a70.276,70.276,0,0,0-70.181,70.181V730.808L770.542,188.1l652.463-658.324a111.281,111.281,0,0,0,23.438-121.363,110.4,110.4,0,0,0-102-68.123H-314.215c-61.846,0-115.2,35.658-139.191,93.09a152.484,152.484,0,0,0,32.019,166.381L1195.752,1239.025c4.778,4.834,4,10.08,2.469,13.749-2.859,6.831-7.662,6.831-9.72,6.831H-400.058l613.7-622.138c40.686-41.241,42.492-105.032,3.889-148.747L-393.336-120.557c-34.159-34.077-85.483-43.741-130.779-24.522-43.182,18.354-69.539,57.763-68.816,102.586l5.415,972.338a70.365,70.365,0,0,0,70.4,69.791h.139A69.707,69.707,0,0,0-467.432,978.8,69.7,69.7,0,0,0-447.186,929.1l-5.081-910.185L91.664,561.261l-640.382,649.215a111.3,111.3,0,0,0-23.412,121.389,110.343,110.343,0,0,0,101.978,68.1H1188.5c61.851,0,115.2-35.687,139.222-93.116a152.588,152.588,0,0,0-32.05-166.354L-321.465-498.779c-4.774-4.834-4-10.08-2.47-13.748,2.859-6.831,7.663-6.831,9.72-6.831H1274.041L788.232-29.689,648.542,111.919c-40.686,41.211-42.463,105-4.141,148.383l611.144,609.611c34.185,34.1,85.506,43.684,130.776,24.522,43.185-18.354,69.539-57.654,68.816-102.2l.03-972.589A70.276,70.276,0,0,0,1384.987-250.531Z"/></g></g></svg>