<svg xmlns="http://www.w3.org/2000/svg" width="84.532" height="101.7" viewBox="0 0 84.532 101.7"><defs><style>.a,.b{fill:none;stroke-linecap:round;stroke-linejoin:round;stroke-width:3px;}.a{stroke:#e20334;}.b{stroke:#28263e;}</style></defs><g transform="translate(-99.089 -258.805)"><line class="a" y2="8.582" transform="translate(115.608 339.695)"/><path class="a" d="M155.589,309.656a25.747,25.747,0,0,0-39.981,21.456"/><path class="a" d="M167.1,333.258v-2.146a25.617,25.617,0,0,0-4.334-14.3"/><line class="a" y1="6.437" transform="translate(167.102 341.84)"/><path class="a" d="M158.521,333.258v-2.146a17.165,17.165,0,0,0-34.331,0v17.165"/><line class="a" y1="6.437" transform="translate(158.521 341.84)"/><line class="a" y2="5.72" transform="translate(132.773 342.557)"/><path class="a" d="M149.937,348.277V331.112a8.582,8.582,0,1,0-17.164,0h0v2.862"/><line class="a" y2="15.732" transform="translate(141.355 332.545)"/><path class="b" d="M100.589,341.84v8.583a8.583,8.583,0,0,0,8.582,8.582h64.368a8.582,8.582,0,0,0,8.582-8.582v-47.2a8.582,8.582,0,0,0-8.582-8.582H109.171a8.582,8.582,0,0,0-8.582,8.582"/><path class="b" d="M117.753,283.9a23.6,23.6,0,1,1,47.2,0v10.728h-47.2Z"/><line class="b" y2="27.893" transform="translate(100.589 303.219)"/></g></svg>