<svg xmlns="http://www.w3.org/2000/svg" width="333.828" height="252.831" viewBox="0 0 333.828 252.831"><defs><style>.a,.h{fill:#fff;}.a,.e,.j{stroke:#535165;stroke-linejoin:round;stroke-width:2px;}.a,.e,.j,.k{stroke-linecap:round;}.b{fill:#191816;opacity:0.15;isolation:isolate;}.c,.j{fill:#e9e9ec;}.d{fill:#d4d4d8;}.e,.k{fill:none;}.f{fill:#e20334;}.g{fill:#ffdcd1;}.i{fill:#a9a8b2;}.k{stroke:#e20334;stroke-miterlimit:10;stroke-width:3px;}</style></defs><g transform="translate(-855.798 -401.497)"><line class="a" x2="297.501" transform="translate(873.962 600.931)"/><line class="a" x2="9.535" transform="translate(856.798 600.93)"/><line class="a" x2="9.535" transform="translate(1179.091 600.93)"/><ellipse class="b" cx="80.096" cy="5.721" rx="80.096" ry="5.721" transform="translate(889.219 642.886)"/><path class="c" d="M1034.117,517.02A22.884,22.884,0,0,0,1057,494.135V448.366a45.769,45.769,0,0,0-45.67-45.869q-1.557,0-3.112.1a46.8,46.8,0,0,0-42.756,47.333v44.205a22.884,22.884,0,0,0,22.884,22.885Z"/><path class="d" d="M1008.219,402.711a46.8,46.8,0,0,0-42.756,47.219v11.442a46.8,46.8,0,0,1,42.756-47.219A45.769,45.769,0,0,1,1056.9,456.81q.1,1.554.1,3.113V448.48a45.769,45.769,0,0,0-45.67-45.868Q1009.774,402.609,1008.219,402.711Z"/><path class="e" d="M1034.117,517.02A22.884,22.884,0,0,0,1057,494.135V448.366a45.769,45.769,0,0,0-45.67-45.869q-1.557,0-3.112.1a46.8,46.8,0,0,0-42.756,47.333v44.205a22.884,22.884,0,0,0,22.884,22.885Z"/><path class="f" d="M1047.466,576.139a28.606,28.606,0,0,0,57.212.041V541.812a1.907,1.907,0,0,0-1.907-1.907H1083.7a1.907,1.907,0,0,0-1.907,1.907v34.327a5.721,5.721,0,1,1-11.442,0v-3.814a59.119,59.119,0,1,0-118.238,0v28.606h95.353Z"/><path class="e" d="M1047.466,576.139a28.606,28.606,0,0,0,57.212.041V541.812a1.907,1.907,0,0,0-1.907-1.907H1083.7a1.907,1.907,0,0,0-1.907,1.907v34.327a5.721,5.721,0,1,1-11.442,0v-3.814a59.119,59.119,0,1,0-118.238,0v28.606h95.353Z"/><path class="a" d="M1035.909,516.524a15.256,15.256,0,0,0-13.158-7.132H999.866a15.259,15.259,0,0,0-13.159,7.132,14.648,14.648,0,0,0-1.144,12.434l5.149,14.227a3.815,3.815,0,0,0,5.531,1.983l15.256-9.077,15.256,9.077a3.814,3.814,0,0,0,5.531-1.983l5.149-14.227A14.646,14.646,0,0,0,1035.909,516.524Z"/><line class="e" y2="64.84" transform="translate(1011.27 536.091)"/><path class="g" d="M1024.62,522.741l-13.349,13.349-13.349-13.349V501.764h26.7Z"/><path class="h" d="M997.883,515.113a46.752,46.752,0,0,0,26.7,0V501.764h-26.7Z"/><path class="e" d="M1024.62,522.741l-13.349,13.349-13.349-13.349V501.764h26.7Z"/><line class="e" y2="34.327" transform="translate(975.036 566.604)"/><line class="e" y2="34.327" transform="translate(1047.504 566.604)"/><path class="a" d="M1049.373,461.715V449.548a41.955,41.955,0,0,1-51.643-11.175,20.977,20.977,0,0,1-20.711,17.621,21.238,21.238,0,0,1-3.814-.381v6.1a7.628,7.628,0,0,0,0,15.257h.5a38.141,38.141,0,0,0,75.214,0h.458a7.628,7.628,0,0,0,0-15.257Z"/><path class="e" d="M999.752,487.651a16.627,16.627,0,0,0,22.884,0"/><path class="e" d="M1032.21,465.53a6.217,6.217,0,0,0-11.443,0"/><path class="e" d="M1001.735,465.53a6.216,6.216,0,0,0-11.442,0"/><circle class="c" cx="4.768" cy="4.768" r="4.768" transform="translate(984.571 473.158)"/><circle class="c" cx="4.768" cy="4.768" r="4.768" transform="translate(1028.434 473.158)"/><path class="h" d="M1097.05,496.042a5.721,5.721,0,0,0-11.443,0v24.792h11.443Z"/><path class="e" d="M1097.05,496.042a5.721,5.721,0,0,0-11.443,0v24.792h11.443Z"/><path class="e" d="M1076.072,525.64a8.658,8.658,0,0,1,8.658-8.62h21.855v10.641a6.332,6.332,0,0,1-1.907,4.615h0a6.484,6.484,0,0,0-1.907,4.616v3.013H1083.7v-5.721l-3.394-1.717A7.625,7.625,0,0,1,1076.072,525.64Z"/><rect class="h" width="19.071" height="26.699" rx="7.628" transform="translate(1082.109 528.195) rotate(-76.03)"/><path class="h" d="M1084.883,523.962a7.627,7.627,0,0,1,9.23-5.569l11.1,2.784a7.633,7.633,0,0,1,5.111,4.234l.457-1.869a7.628,7.628,0,0,0-5.535-9.26l-.033-.008-11.1-2.746a7.627,7.627,0,0,0-9.23,5.568l-.954,3.814a7.627,7.627,0,0,0,.5,5Z"/><rect class="e" width="19.071" height="26.699" rx="7.628" transform="translate(1082.109 528.195) rotate(-76.03)"/><rect class="c" width="156.379" height="110.609" rx="7.628" transform="translate(891.126 517.02)"/><path class="h" d="M1039.838,517.02H898.716a7.629,7.629,0,0,0-7.629,7.628h156.379A7.628,7.628,0,0,0,1039.838,517.02Z"/><path class="i" d="M891.087,620a7.629,7.629,0,0,0,7.629,7.628h141.122a7.628,7.628,0,0,0,7.628-7.628Z"/><path class="j" d="M995.976,639.072a1.981,1.981,0,0,1,1.411.61,2.137,2.137,0,0,1,.5,1.487A6.217,6.217,0,0,1,991.7,646.7H946.812a6.217,6.217,0,0,1-6.1-5.531,2.137,2.137,0,0,1,.5-1.487,1.944,1.944,0,0,1,1.411-.61Z"/><rect class="e" width="156.379" height="110.609" rx="7.628" transform="translate(891.126 517.02)"/><path class="j" d="M992.161,646.7H946.392c4.73-12.625,6.865-44.778,7.628-55.534a3.815,3.815,0,0,1,3.814-3.585h23.228a3.813,3.813,0,0,1,3.814,3.585C985.334,601.922,987.47,634.075,992.161,646.7Z"/><line class="e" y2="5.721" transform="translate(904.475 610.466)"/><line class="e" y2="5.721" transform="translate(912.103 610.466)"/><line class="e" y2="5.721" transform="translate(919.731 610.466)"/><line class="e" y2="5.721" transform="translate(927.36 610.466)"/><line class="e" x2="131.587" transform="translate(902.568 524.648)"/><path class="e" d="M1110.437,438.831a17.164,17.164,0,1,0-30.322,11.061,15.255,15.255,0,0,1,3.623,9.8v3.814h19.071v-3.814a15.254,15.254,0,0,1,3.585-9.8A17.2,17.2,0,0,0,1110.437,438.831Z"/><path class="e" d="M1110.437,438.831a17.164,17.164,0,1,0-30.322,11.061,15.255,15.255,0,0,1,3.623,9.8v3.814h19.071v-3.814a15.254,15.254,0,0,1,3.585-9.8A17.2,17.2,0,0,0,1110.437,438.831Z"/><path class="e" d="M1098.995,471.251h-11.443a3.815,3.815,0,0,1-3.814-3.814v-3.815h19.071v3.815A3.815,3.815,0,0,1,1098.995,471.251Z"/><path class="e" d="M1098.995,473.158a5.721,5.721,0,0,1-11.443,0v-1.907h11.443Z"/><line class="k" y1="3.814" transform="translate(1093.274 410.225)"/><line class="k" y1="2.67" x2="2.708" transform="translate(1110.78 418.616)"/><line class="k" x2="3.814" transform="translate(1118.065 438.831)"/><line class="k" x1="2.708" y1="2.67" transform="translate(1073.021 418.616)"/><line class="k" x1="3.814" transform="translate(1064.668 438.831)"/></g></svg>