<svg xmlns="http://www.w3.org/2000/svg" width="97.33" height="97.33" viewBox="0 0 97.33 97.33"><defs><style>.a,.c,.d{fill:none;}.a{stroke:#28263e;}.a,.d{stroke-linecap:round;stroke-linejoin:round;stroke-width:3px;}.b{fill:#28263e;}.d{stroke:#e20334;}</style></defs><g transform="translate(-402.069 -260.305)"><path class="a" d="M497.371,341.056a6.267,6.267,0,0,1-6.083,6.44H410.179a6.268,6.268,0,0,1-6.083-6.44V280.939a6.271,6.271,0,0,1,6.083-6.44h81.109a6.267,6.267,0,0,1,6.083,6.44Z"/><line class="a" x2="56.776" transform="translate(422.346 355.607)"/><line class="a" y2="8.111" transform="translate(450.734 347.496)"/><circle class="b" cx="2.028" cy="2.028" r="2.028" transform="translate(448.706 337.358)"/><line class="a" x2="93.275" transform="translate(404.096 331.275)"/><line class="a" y2="4.055" transform="translate(432.484 317.081)"/><line class="a" y2="4.055" transform="translate(450.734 284.637)"/><line class="a" y1="20.277" transform="translate(432.484 284.637)"/><line class="a" y2="4.055" transform="translate(468.983 317.081)"/><line class="a" y1="20.277" transform="translate(468.983 284.637)"/><line class="a" y1="20.277" transform="translate(450.734 300.859)"/><rect class="c" width="97.33" height="97.33" transform="translate(402.069 260.305)"/><circle class="d" cx="6.083" cy="6.083" r="6.083" transform="translate(426.401 304.914)"/><circle class="d" cx="6.083" cy="6.083" r="6.083" transform="translate(444.651 288.693)"/><circle class="d" cx="6.083" cy="6.083" r="6.083" transform="translate(462.9 304.914)"/></g></svg>