<svg xmlns="http://www.w3.org/2000/svg" width="350.192" height="340.662" viewBox="0 0 350.192 340.662"><defs><style>.a,.f{fill:#e9e9ec;}.b,.c{fill:#fff;}.b,.d,.e,.f,.h{stroke:#535165;stroke-linecap:round;stroke-linejoin:round;}.b,.d,.f,.h{stroke-width:2px;}.d,.e{fill:none;}.e{stroke-width:2px;}.g{fill:#535165;}.h,.i{fill:#e20334;}</style></defs><g transform="translate(-358.862 -108.378)"><path class="a" d="M508.763,260.9l11.927-73.808a11.8,11.8,0,0,1,13.422-9.9l.129.02,116.628,18.848a11.821,11.821,0,0,1,9.783,13.554l-11.944,73.907a11.821,11.821,0,0,1-13.55,9.758L518.53,274.422A11.819,11.819,0,0,1,508.763,260.9Z"/><path class="b" d="M673.3,133.13,527.117,109.494a10,10,0,0,0-11.295,8.147h0l165.6,26.838h0a9.845,9.845,0,0,0-8.076-11.341Z"/><path class="a" d="M650.533,193.256,529.765,173.714a7.87,7.87,0,0,1-6.522-6.572l-7.5-48.878a1.975,1.975,0,0,1,2.274-2.249l161.73,26.139a1.974,1.974,0,0,1,1.641,2.259,1.953,1.953,0,0,1-.192.59l-22.49,44.055a7.87,7.87,0,0,1-8.171,4.2Z"/><path class="c" d="M529.766,173.714l21.54,3.5,63.2-45.6-96.41-15.6a1.973,1.973,0,0,0-2.274,2.249l7.5,48.878A7.87,7.87,0,0,0,529.766,173.714Z"/><path class="d" d="M650.533,193.256,529.765,173.714a7.87,7.87,0,0,1-6.522-6.572l-7.5-48.878a1.975,1.975,0,0,1,2.274-2.249l161.73,26.139a1.974,1.974,0,0,1,1.641,2.259,1.953,1.953,0,0,1-.192.59l-22.49,44.055a7.87,7.87,0,0,1-8.171,4.2Z"/><path class="b" d="M509.6,250.171l11.3-69.935a11.8,11.8,0,0,1,13.526-9.762l112.685,18.211a11.8,11.8,0,0,1,9.762,13.525l-11.3,69.935a11.82,11.82,0,0,1-13.554,9.783h0l-112.636-18.2a11.794,11.794,0,0,1-9.79-13.505Z"/><rect class="e" width="15.786" height="106.542" transform="translate(535.79 186.799) rotate(-80.792)"/><path class="f" d="M530.153,221.626l3.767-23.312a3.948,3.948,0,0,1,4.527-3.267h0l97.12,15.7a3.948,3.948,0,0,1,3.268,4.527l-3.768,23.312a3.923,3.923,0,0,1-4.5,3.247l-97.145-15.7a3.947,3.947,0,0,1-3.267-4.527h0Z"/><line class="d" x2="7.771" y2="1.249" transform="translate(540.51 219.319)"/><line class="d" x2="54.4" y2="8.796" transform="translate(556.053 221.818)"/><line class="d" x2="7.771" y2="1.249" transform="translate(618.224 231.889)"/><line class="d" x2="7.771" y2="1.249" transform="translate(541.76 211.547)"/><line class="d" x2="7.771" y2="1.274" transform="translate(557.302 214.046)"/><line class="d" x2="7.771" y2="1.249" transform="translate(572.845 216.57)"/><line class="d" x2="7.771" y2="1.274" transform="translate(588.388 219.069)"/><line class="d" x2="7.771" y2="1.249" transform="translate(603.931 221.593)"/><line class="d" x2="7.771" y2="1.249" transform="translate(619.474 224.118)"/><line class="d" x2="7.746" y2="1.249" transform="translate(543.034 203.776)"/><line class="d" x2="7.771" y2="1.274" transform="translate(558.552 206.275)"/><line class="d" x2="7.771" y2="1.249" transform="translate(574.095 208.799)"/><line class="d" x2="7.771" y2="1.249" transform="translate(589.638 211.323)"/><line class="d" x2="7.771" y2="1.249" transform="translate(605.18 213.821)"/><line class="d" x2="7.771" y2="1.249" transform="translate(620.723 216.345)"/><path class="b" d="M560.087,258.348l2.511-15.542a3.948,3.948,0,0,1,4.528-3.267h0l27.135,4.385a3.923,3.923,0,0,1,3.247,4.5h0L595,263.964a3.948,3.948,0,0,1-4.528,3.268h0l-27.135-4.386A3.946,3.946,0,0,1,560.087,258.348Z"/><path class="a" d="M696.138,276.043a17.893,17.893,0,0,0-22.182,12.175l-.034.119-6.147,21.54a17.9,17.9,0,1,0,34.434,9.82l6.147-21.515A17.917,17.917,0,0,0,696.138,276.043Z"/><path class="c" d="M693.518,272.394A15.743,15.743,0,0,0,674.055,283.2l0,.009-5.4,18.916a15.743,15.743,0,0,0,30,9.552q.143-.449.259-.906l5.423-18.866a15.768,15.768,0,0,0-10.8-19.51Z"/><path class="g" d="M689.716,284.214a1.035,1.035,0,0,1,.4,0,1.478,1.478,0,0,1,.875.675,1.524,1.524,0,0,1,0,1.1,1.449,1.449,0,0,1-1.374,1.049h-.4a1.473,1.473,0,0,1-1-1.8,1.45,1.45,0,0,1,1.374-1.025m0-2.5a3.948,3.948,0,0,0-1.074,7.721,4.127,4.127,0,0,0,1.1.15,3.948,3.948,0,0,0,1.074-7.721A4.215,4.215,0,0,0,689.591,281.713Z"/><path class="d" d="M693.518,272.394A15.743,15.743,0,0,0,674.055,283.2l0,.009-5.4,18.916a15.743,15.743,0,0,0,30,9.552q.143-.449.259-.906l5.423-18.866a15.768,15.768,0,0,0-10.8-19.51Z"/><path class="a" d="M666.678,357.706a3.9,3.9,0,0,0-4.279-3.48l-.069.007-3.9.425-3.5-31.286a3.949,3.949,0,0,0-4.348-3.473l-136.91,15.317a3.949,3.949,0,0,0-3.473,4.348l-3.9.425a3.924,3.924,0,0,0-3.483,4.319c0,.027.006.054.01.081l3.052,27.485a3.923,3.923,0,0,0,4.324,3.476l.024,0,3.923-.425L519.4,421.85a3.923,3.923,0,0,0,4.324,3.476l.024,0,60.547-6.772L567.05,438.717a3.924,3.924,0,0,0,.408,5.533l.017.014,4.5,3.823a3.922,3.922,0,0,0,5.533-.408l.014-.017L604.335,416.3l56.3-6.3a3.921,3.921,0,0,0,3.475-4.324l0-.024-1.749-15.643,3.923-.425a3.973,3.973,0,0,0,3.473-4.373Z"/><path class="b" d="M515.745,333.294l58.61-6.968a3.923,3.923,0,0,1,4.359,3.433l9.293,78.163a3.949,3.949,0,0,1-3.454,4.387l-58.588,6.965a3.948,3.948,0,0,1-4.384-3.455l-9.293-78.163a3.948,3.948,0,0,1,3.454-4.387h0Z"/><path class="b" d="M590,324.466l58.635-6.971a3.949,3.949,0,0,1,4.387,3.455l9.293,78.163a3.923,3.923,0,0,1-3.429,4.358l-58.664,6.975a3.922,3.922,0,0,1-4.358-3.433l-9.293-78.163a3.948,3.948,0,0,1,3.454-4.387h0Z"/><line class="d" y1="1.849" x2="15.643" transform="translate(575.744 336.216)"/><line class="d" y1="1.849" x2="15.643" transform="translate(577.143 347.936)"/><line class="d" y1="1.849" x2="15.618" transform="translate(578.543 359.654)"/><line class="d" y1="1.874" x2="15.643" transform="translate(579.917 371.374)"/><line class="d" y1="1.874" x2="15.643" transform="translate(581.316 383.094)"/><line class="d" y1="1.849" x2="15.643" transform="translate(582.716 394.839)"/><path class="f" d="M506.326,354.231l7.821-.925L512.3,337.689l-3.923.45a3.948,3.948,0,0,0-3.448,4.373Z"/><path class="f" d="M507.725,365.976a3.922,3.922,0,0,0,4.373,3.4l3.9-.45-1.851-15.644-7.821.925Z"/><path class="f" d="M658.556,367.85l7.871-.975-1.4-11.72a3.949,3.949,0,0,0-4.373-3.448l-3.9.475Z"/><path class="h" d="M660.405,383.493l3.923-.475a3.944,3.944,0,0,0,2.624-1.474,3.9,3.9,0,0,0,.825-2.9l-1.35-11.768-7.821.925Z"/><path class="d" d="M524.477,340.2l23.449-2.787a3.923,3.923,0,0,1,4.359,3.432h0l.466,3.92a3.923,3.923,0,0,1-3.433,4.359l-23.448,2.788a3.948,3.948,0,0,1-4.387-3.454l-.463-3.9A3.949,3.949,0,0,1,524.477,340.2Z"/><line class="d" y1="4.648" x2="39.082" transform="translate(530.715 354.632)"/><line class="d" y1="5.572" x2="46.903" transform="translate(523.818 362.453)"/><line class="d" y1="5.572" x2="46.903" transform="translate(524.742 370.25)"/><rect class="d" width="23.614" height="11.82" rx="1.58" transform="translate(527.532 399.275) rotate(-6.78)"/><path class="d" d="M560.864,379.439l7.817-.929a3.923,3.923,0,0,1,4.359,3.432h0l2.324,19.554a3.947,3.947,0,0,1-3.454,4.386h0l-7.817.93a3.923,3.923,0,0,1-4.358-3.433h0l-2.325-19.553a3.948,3.948,0,0,1,3.454-4.387Z"/><line class="d" y1="2.774" x2="23.464" transform="translate(525.667 380.87)"/><line class="d" y1="2.799" x2="23.439" transform="translate(526.617 388.667)"/><path class="d" d="M599.658,339.19a7.846,7.846,0,1,0,1.627-5.809A7.846,7.846,0,0,0,599.658,339.19Z"/><path class="d" d="M606.155,393.889a7.87,7.87,0,1,0,1.636-5.8A7.871,7.871,0,0,0,606.155,393.889Z"/><path class="d" d="M605.812,358.276l11.738-1.395a3.922,3.922,0,0,1,4.358,3.432h0l.466,3.921a3.921,3.921,0,0,1-3.432,4.358l-11.737,1.4a3.923,3.923,0,0,1-4.359-3.433l-.463-3.895a3.948,3.948,0,0,1,3.454-4.387h0Z"/><line class="d" x2="1.399" y2="11.745" transform="translate(608.404 346.061)"/><line class="d" x2="1.849" y2="15.618" transform="translate(611.203 369.526)"/><path class="d" d="M615.3,337.315l23.439-2.774,1.849,15.643"/><path class="d" d="M649.335,357.056a7.845,7.845,0,1,1-2.945-5.253A7.846,7.846,0,0,1,649.335,357.056Z"/><path class="a" d="M655.582,376.151a3.973,3.973,0,0,1-3.448,4.373l-15.643,1.849a3.972,3.972,0,0,1-4.373-3.448h0a3.948,3.948,0,0,1,3.448-4.373l15.643-1.849a3.923,3.923,0,0,1,4.369,3.419Z"/><line class="d" y1="1.874" x2="15.618" transform="translate(636.041 376.598)"/><line class="d" y1="2.799" x2="23.464" transform="translate(629.144 384.418)"/><line class="d" y1="1.849" x2="15.643" transform="translate(637.89 392.239)"/><path class="a" d="M496.505,250.029a3.924,3.924,0,0,0-3.54-4.272h-.008l-43.03-4.048-5-14.993a3.923,3.923,0,0,0-4.943-2.518l-.057.018L361.567,250.2a3.948,3.948,0,0,0-2.5,4.991l0,.009L394.9,363.58a3.949,3.949,0,0,0,4.991,2.5l.009,0,15.343-5,66.27,6.147a3.948,3.948,0,0,0,4.273-3.548Z"/><path class="a" d="M379.238,230.466l82.662-.909a3.949,3.949,0,0,1,3.991,3.88l1.255,114.123a3.948,3.948,0,0,1-3.9,3.991l-82.662.909a3.922,3.922,0,0,1-3.966-3.88l-1.256-114.148A3.923,3.923,0,0,1,379.238,230.466Z"/><path class="b" d="M394.459,348.118,404.734,238.4a3.923,3.923,0,0,1,4.272-3.54l78.371,7.339a3.923,3.923,0,0,1,3.54,4.272L480.642,356.188a3.948,3.948,0,0,1-4.3,3.563l-78.321-7.334a3.924,3.924,0,0,1-3.541-4.272Z"/><line class="d" x2="15.668" y2="1.449" transform="translate(415.767 247.356)"/><line class="d" x2="35.259" y2="3.298" transform="translate(414.668 259.102)"/><line class="d" x2="23.489" y2="2.224" transform="translate(413.568 270.845)"/><line class="d" x2="27.412" y2="2.574" transform="translate(412.469 282.615)"/><line class="d" x2="11.77" y2="1.099" transform="translate(411.344 294.36)"/><line class="d" x2="43.105" y2="4.023" transform="translate(410.245 306.129)"/><line class="d" x2="27.437" y2="2.574" transform="translate(409.146 317.874)"/><line class="d" x2="50.952" y2="4.773" transform="translate(408.046 329.643)"/><line class="d" x2="23.514" y2="2.199" transform="translate(406.947 341.388)"/><line class="d" x2="19.591" y2="1.824" transform="translate(439.282 249.556)"/><line class="d" x2="19.591" y2="1.824" transform="translate(430.96 296.209)"/><line class="d" x2="19.591" y2="1.824" transform="translate(438.307 344.336)"/><rect class="b" width="86.585" height="118.071" rx="1.58" transform="translate(360.824 246.653) rotate(-17.49)"/><line class="d" y1="4.723" x2="15.018" transform="translate(375.636 249.631)"/><line class="d" y1="10.645" x2="33.784" transform="translate(379.184 254.979)"/><line class="d" y1="7.097" x2="22.515" transform="translate(382.733 269.797)"/><line class="d" y1="8.271" x2="26.263" transform="translate(386.281 279.866)"/><line class="d" y1="3.548" x2="11.245" transform="translate(389.829 295.859)"/><line class="d" y1="13.019" x2="41.281" transform="translate(393.378 297.658)"/><line class="d" y1="8.271" x2="26.263" transform="translate(396.926 313.651)"/><line class="d" y1="15.368" x2="48.803" transform="translate(400.474 317.824)"/><line class="d" y1="7.097" x2="22.515" transform="translate(404.023 337.365)"/><line class="d" y1="5.897" x2="18.766" transform="translate(398.151 241.36)"/><line class="d" y1="5.897" x2="18.766" transform="translate(408.596 287.588)"/><line class="d" y1="5.922" x2="18.766" transform="translate(434.059 329.068)"/><rect class="b" width="86.585" height="118.071" rx="1.57" transform="translate(380.509 228.49)"/><rect class="d" width="51.176" height="11.795" rx="1.57" transform="translate(392.303 240.309)"/><line class="d" x2="55.1" transform="translate(400.175 263.923)"/><line class="d" x2="47.228" transform="translate(392.303 275.718)"/><path class="i" d="M419.865,291.46H396.251a3.922,3.922,0,0,1-3.948-3.9v-.026h0a3.948,3.948,0,0,1,3.948-3.948h23.614a3.949,3.949,0,0,1,3.923,3.948h0A3.923,3.923,0,0,1,419.865,291.46Z"/><path class="a" d="M419.865,315.075H396.251a3.922,3.922,0,0,1-3.948-3.9v-.026h0a3.948,3.948,0,0,1,3.948-3.948h23.614a3.949,3.949,0,0,1,3.923,3.948h0A3.923,3.923,0,0,1,419.865,315.075Z"/><line class="d" x2="23.614" transform="translate(396.251 287.538)"/><line class="d" x2="23.614" transform="translate(396.251 299.332)"/><line class="d" x2="23.614" transform="translate(396.251 311.152)"/><circle class="d" cx="13.769" cy="13.769" r="13.769" transform="translate(427.737 283.614)"/><circle class="d" cx="13.769" cy="13.769" r="13.769" transform="translate(427.737 299.357)"/><path class="d" d="M464.57,399.211l-15.418-17.492-34.436,32.635a3.948,3.948,0,0,0-.25,5.447l7.846,8.946a3.972,3.972,0,0,0,5.448.45Z"/><path class="d" d="M477.539,378.171l-5.847-6.647a3.9,3.9,0,0,0-5-.75L449.2,381.62l15.418,17.492,13.044-15.943A3.923,3.923,0,0,0,477.539,378.171Z"/><line class="d" y1="10.37" x2="11.845" transform="translate(424.389 408.683)"/><path class="a" d="M477.986,384.768l-5.847-6.672a4,4,0,0,0-5-.75l-17.487,10.875-34.484,32.61a3.948,3.948,0,0,0-.25,5.447l7.846,8.946a3.947,3.947,0,0,0,5.447.475l36.808-29.986,13.044-15.943a3.974,3.974,0,0,0-.075-5Z"/><path class="c" d="M464.57,399.211l-15.418-17.492-34.436,32.635a3.948,3.948,0,0,0-.25,5.447l7.846,8.946a3.972,3.972,0,0,0,5.448.45Z"/><path class="i" d="M477.539,378.171l-5.847-6.647a3.9,3.9,0,0,0-5-.75L449.2,381.62l15.418,17.492,13.044-15.943A3.923,3.923,0,0,0,477.539,378.171Z"/><path class="d" d="M464.57,399.211l-15.418-17.492-34.436,32.635a3.948,3.948,0,0,0-.25,5.447l7.846,8.946a3.972,3.972,0,0,0,5.448.45Z"/><path class="d" d="M477.539,378.171l-5.847-6.647a3.9,3.9,0,0,0-5-.75L449.2,381.62l15.418,17.492,13.044-15.943A3.923,3.923,0,0,0,477.539,378.171Z"/><line class="d" y1="10.37" x2="11.845" transform="translate(424.389 408.683)"/><path class="c" d="M576.969,439.693a3.973,3.973,0,0,1-5.572.35l-2.949-2.5a3.923,3.923,0,0,1-.36-5.536l.01-.011,41.581-47.3a4,4,0,0,1,2.7-1.324,3.928,3.928,0,0,1,2.849.975l2.949,2.5a3.924,3.924,0,0,1,.386,5.535l-.011.012Z"/><line class="d" x2="8.871" y2="7.796" transform="translate(581.092 417.103)"/><path class="d" d="M568.1,431.85a7.87,7.87,0,0,1-.737-11.106l.012-.014,15.593-17.717"/><path class="i" d="M625.046,385.018a5.906,5.906,0,1,1-8.871-7.8c2.149-2.5,10.92-3.5,10.92-3.5S627.2,382.569,625.046,385.018Z"/><path class="d" d="M625.046,385.018a5.906,5.906,0,1,1-8.871-7.8c2.149-2.5,10.92-3.5,10.92-3.5S627.2,382.569,625.046,385.018Z"/><path class="d" d="M576.969,439.693a3.973,3.973,0,0,1-5.572.35l-2.949-2.5a3.923,3.923,0,0,1-.36-5.536l.01-.011,41.581-47.3a4,4,0,0,1,2.7-1.324,3.928,3.928,0,0,1,2.849.975l2.949,2.5a3.924,3.924,0,0,1,.386,5.535l-.011.012Z"/></g></svg>