<svg xmlns="http://www.w3.org/2000/svg" width="136.549" height="23.721" viewBox="0 0 136.549 23.721"><defs><style>.a{fill:#e10d39;}.b{fill:#272b40;}</style></defs><g transform="translate(-217.951 -49.735)"><path class="a" d="M240.723,54.446a.81.81,0,0,0-.809.808V65.745L233.648,59.5l7.513-7.58a1.281,1.281,0,0,0-.9-2.181h-19.1a1.714,1.714,0,0,0-1.6,1.071,1.756,1.756,0,0,0,.372,1.916L238.544,71.6a.136.136,0,0,1,.028.158.109.109,0,0,1-.111.079h-18.29l7.067-7.167a1.242,1.242,0,0,0,.044-1.712l-7.033-7.015a1.368,1.368,0,0,0-1.506-.28,1.254,1.254,0,0,0-.792,1.182l.062,11.2a.81.81,0,0,0,.811.8h0a.809.809,0,0,0,.8-.813l-.059-10.48,6.263,6.245-7.373,7.475a1.281,1.281,0,0,0,.9,2.182h19.1a1.715,1.715,0,0,0,1.6-1.072,1.757,1.757,0,0,0-.372-1.916L221.074,51.592a.136.136,0,0,1-.028-.158.11.11,0,0,1,.112-.079h18.287l-5.594,5.639-1.608,1.63a1.241,1.241,0,0,0-.047,1.708l7.036,7.02a1.366,1.366,0,0,0,1.506.279,1.252,1.252,0,0,0,.793-1.176v-11.2a.809.809,0,0,0-.805-.813Z"/><path class="b" d="M251.822,54.282h4.561a8.8,8.8,0,0,1,4.527.887,3.089,3.089,0,0,1,1.409,2.823,3.548,3.548,0,0,1-.617,2.156,2.463,2.463,0,0,1-1.64,1.013v.1a3.231,3.231,0,0,1,2.012,1.164,3.784,3.784,0,0,1,.616,2.265,3.736,3.736,0,0,1-1.449,3.129,6.272,6.272,0,0,1-3.936,1.123h-5.483Zm3.109,5.806h1.8a3.294,3.294,0,0,0,1.83-.391,1.459,1.459,0,0,0,.567-1.293,1.293,1.293,0,0,0-.618-1.21,3.945,3.945,0,0,0-1.949-.367h-1.635Zm0,2.467v3.816h2.025a3,3,0,0,0,1.9-.491,1.812,1.812,0,0,0,.612-1.5q0-1.824-2.606-1.824Z"/><path class="b" d="M274.062,68.942H265.62V54.282h8.442v2.547h-5.333v3.218h4.96V62.6h-4.96v3.78h5.333Z"/><path class="b" d="M283.144,56.659a3.163,3.163,0,0,0-2.718,1.318,6.141,6.141,0,0,0-.962,3.675q0,4.9,3.68,4.9a11.633,11.633,0,0,0,3.74-.771V68.39a10.422,10.422,0,0,1-4.031.752A6.144,6.144,0,0,1,277.96,67.2a8.212,8.212,0,0,1-1.695-5.569,9.1,9.1,0,0,1,.832-4,6.015,6.015,0,0,1,2.392-2.637,7.074,7.074,0,0,1,3.655-.918,9.867,9.867,0,0,1,4.291,1.033l-1,2.527a16.438,16.438,0,0,0-1.655-.681A4.889,4.889,0,0,0,283.144,56.659Z"/><path class="b" d="M302.9,61.592a7.949,7.949,0,0,1-1.806,5.595,7.819,7.819,0,0,1-10.348,0,7.981,7.981,0,0,1-1.8-5.615,7.872,7.872,0,0,1,1.81-5.59,6.766,6.766,0,0,1,5.189-1.931A6.675,6.675,0,0,1,301.109,56,7.969,7.969,0,0,1,302.9,61.592Zm-10.7,0a6.122,6.122,0,0,0,.93,3.7,3.258,3.258,0,0,0,2.793,1.244q3.723,0,3.723-4.944t-3.7-4.953a3.287,3.287,0,0,0-2.8,1.251,6.1,6.1,0,0,0-.942,3.7Z"/><path class="b" d="M314.591,64.871A3.791,3.791,0,0,1,313.163,68a6.218,6.218,0,0,1-3.977,1.143,9.342,9.342,0,0,1-4.151-.883V65.375a17.184,17.184,0,0,0,2.513.931,7.477,7.477,0,0,0,1.88.271,2.685,2.685,0,0,0,1.57-.391,1.341,1.341,0,0,0,.546-1.164,1.288,1.288,0,0,0-.24-.767,2.712,2.712,0,0,0-.708-.647,18.308,18.308,0,0,0-1.9-.992,8.971,8.971,0,0,1-2.016-1.21,4.55,4.55,0,0,1-1.073-1.354,3.853,3.853,0,0,1-.4-1.8,3.785,3.785,0,0,1,1.318-3.058,5.478,5.478,0,0,1,3.645-1.117,8.621,8.621,0,0,1,2.181.271,15.022,15.022,0,0,1,2.171.762l-1,2.42a14.6,14.6,0,0,0-1.941-.672,6.236,6.236,0,0,0-1.509-.186,1.993,1.993,0,0,0-1.354.411,1.355,1.355,0,0,0-.471,1.072,1.333,1.333,0,0,0,.187.718,2.081,2.081,0,0,0,.606.591,18.68,18.68,0,0,0,1.971,1.024,7.835,7.835,0,0,1,2.82,1.968A3.842,3.842,0,0,1,314.591,64.871Z"/><path class="b" d="M330.558,61.592a7.953,7.953,0,0,1-1.8,5.595,7.819,7.819,0,0,1-10.348,0,7.982,7.982,0,0,1-1.8-5.615,7.876,7.876,0,0,1,1.809-5.59,6.774,6.774,0,0,1,5.19-1.931A6.675,6.675,0,0,1,328.768,56,7.973,7.973,0,0,1,330.558,61.592Zm-10.7,0a6.129,6.129,0,0,0,.931,3.7,3.261,3.261,0,0,0,2.788,1.244q3.723,0,3.723-4.944t-3.7-4.953a3.286,3.286,0,0,0-2.8,1.248,6.1,6.1,0,0,0-.948,3.7Z"/><path class="b" d="M336.652,68.942h-3.059V54.282H342v2.547h-5.344V60.61h4.973v2.536h-4.973Z"/><path class="b" d="M350.519,68.942H347.41V56.866h-3.98V54.28H354.5v2.586h-3.981Z"/></g></svg>